#!OML:ASF I:\Actors\actors\Patient Classification 1\Patient 1\Session 1\Subject1.ASF
:FULLY-SPECIFIED
:DEGREES
2082
root 0.831291 17.4609 8.86941 4.12325 -2.53175 -8.73632
lowerback 0.140078 3.01962 5.92861
upperback -9.74614 4.6525 2.67306
thorax -10.2354 1.91302 -0.843579
lowerneck -10.8824 -9.66773 -3.84503
upperneck 21.1089 -12.7443 -0.160572
head 8.60435 -6.35975 -0.79959
rclavicle -2.98177e-015 -2.17669e-014
rhumerus 45.1119 -6.86628 -59.0043
rradius 44.8014
rwrist 47.2546
rhand -28.9146 -44.9889
rfingers 7.12502
rthumb -2.26925 285.043
lclavicle -2.98177e-015 -2.17669e-014
lhumerus 6.29025 -19.7762 84.8297
lradius 61.2028
lwrist 42.9242
lhand -24.1243 -2.74352
lfingers 7.12502
lthumb 2.35733 27.2232
rfemur -4.23281 13.4052 24.6231
rtibia 11.3553
rfoot -15.0968 -17.9896
rtoes -2.05102
lfemur 5.06191 -30.3202 -11.2014
ltibia 0.0501046
lfoot -12.3079 39.2153
ltoes -2.79752
2083
root 0.842209 17.459 8.87623 4.0932 -2.67562 -8.75831
lowerback -0.558892 2.93969 5.48687
upperback -9.3404 4.45451 2.96856
thorax -9.42065 1.89708 -0.227178
lowerneck -10.9781 -9.75673 -3.92616
upperneck 20.6739 -12.7939 -0.318557
head 8.46931 -6.40748 -0.833934
rclavicle -9.44227e-016 -1.50579e-014
rhumerus 45.1579 -7.25567 -60.7667
rradius 45.3261
rwrist 45.4171
rhand -29.1531 -45.0805
rfingers 7.12502
rthumb -2.49961 284.954
lclavicle -9.44227e-016 -1.50579e-014
lhumerus 6.72437 -19.3451 84.8192
lradius 61.4126
lwrist 42.8716
lhand -24.0468 -2.65203
lfingers 7.12502
lthumb 2.43218 27.3138
rfemur -4.18992 13.4315 24.616
rtibia 11.3655
rfoot -15.0684 -17.8969
rtoes -2.1045
lfemur 5.26839 -30.4605 -11.3543
ltibia 0.000182151
lfoot -12.5929 39.4493
ltoes -2.21483
2084
root 0.852941 17.4572 8.88395 4.06634 -2.84809 -8.8281
lowerback -0.054603 3.04222 5.57636
upperback -9.82189 4.66486 2.84479
thorax -10.2433 1.95829 -0.45897
lowerneck -10.3432 -9.94984 -4.22449
upperneck 20.891 -13.0909 -0.130944
head 8.47029 -6.55956 -0.735205
rclavicle 6.60959e-015 2.28602e-015
rhumerus 43.527 -7.81784 -62.6486
rradius 45.9231
rwrist 43.9814
rhand -29.425 -44.9264
rfingers 7.12502
rthumb -2.76215 285.112
lclavicle 6.60959e-015 2.28602e-015
lhumerus 5.76879 -19.8959 85.0545
lradius 61.6734
lwrist 42.9211
lhand -23.8676 -2.56792
lfingers 7.12502
lthumb 2.60521 27.3959
rfemur -4.13342 13.4866 24.6792
rtibia 11.3726
rfoot -14.9725 -17.8443
rtoes -2.71121
lfemur 5.53299 -30.6322 -11.4759
ltibia -0.117954
lfoot -12.7296 39.7662
ltoes -2.06787
2085
root 0.864883 17.4559 8.89011 4.08875 -3.01253 -8.83804
lowerback -0.1358 3.05204 5.39888
upperback -9.90553 4.6693 2.87688
thorax -10.3046 1.97537 -0.324687
lowerneck -9.95752 -10.0259 -4.3436
upperneck 20.6751 -13.2149 -0.00178687
head 8.34897 -6.6221 -0.660297
rclavicle -2.62147e-014 5.06901e-015
rhumerus 42.6288 -8.40656 -64.5963
rradius 46.557
rwrist 42.5604
rhand -29.8471 -44.536
rfingers 7.12502
rthumb -3.16984 285.508
lclavicle -2.62147e-014 5.06901e-015
lhumerus 5.52823 -20.0454 85.0504
lradius 61.8161
lwrist 42.9186
lhand -23.733 -2.59503
lfingers 7.12502
lthumb 2.73524 27.3672
rfemur -4.13795 13.5467 24.655
rtibia 11.383
rfoot -14.9044 -17.7952
rtoes -3.27452
lfemur 5.72614 -30.8287 -11.6415
ltibia -0.243442
lfoot -12.7728 40.122
ltoes -2.15084
2086
root 0.876888 17.4546 8.89605 4.13993 -3.18358 -8.79929
lowerback -0.82135 2.9884 4.98079
upperback -9.55013 4.49505 3.0634
thorax -9.54072 1.9589 0.159335
lowerneck -10.0471 -10.1056 -4.34944
upperneck 20.1948 -13.3006 0.00273463
head 8.20568 -6.66461 -0.655494
rclavicle 2.47238e-014 4.96962e-017
rhumerus 42.4448 -8.87021 -66.3111
rradius 47.2915
rwrist 40.6862
rhand -29.9433 -44.1224
rfingers 7.12502
rthumb -3.26272 285.923
lclavicle 2.47238e-014 4.96962e-017
lhumerus 6.04122 -19.7768 84.832
lradius 61.9129
lwrist 42.7975
lhand -23.6784 -2.71204
lfingers 7.12502
lthumb 2.78792 27.2495
rfemur -4.16669 13.6642 24.5691
rtibia 11.3695
rfoot -14.8843 -17.7782
rtoes -3.31471
lfemur 5.85344 -30.9589 -11.823
ltibia -0.345587
lfoot -12.8195 40.4059
ltoes -2.09762
2087
root 0.887158 17.4546 8.90336 4.14948 -3.37591 -8.81809
lowerback -0.899025 3.01271 4.79515
upperback -9.59362 4.51811 3.09456
thorax -9.55811 1.98659 0.296317
lowerneck -9.93642 -10.2703 -4.50201
upperneck 20.1521 -13.5425 0.160367
head 8.20038 -6.77706 -0.602257
rclavicle -6.25675e-014 -3.01159e-014
rhumerus 41.4748 -9.301 -67.7288
rradius 48.0723
rwrist 38.2456
rhand -29.8883 -43.6863
rfingers 7.12502
rthumb -3.20963 286.358
lclavicle -6.25675e-014 -3.01159e-014
lhumerus 5.87734 -19.8972 84.7994
lradius 62.0842
lwrist 42.64
lhand -23.6208 -2.80299
lfingers 7.12502
lthumb 2.84356 27.1578
rfemur -4.12263 13.836 24.5701
rtibia 11.3032
rfoot -14.8146 -17.7848
rtoes -3.46457
lfemur 6.01631 -30.9613 -11.9186
ltibia -0.443781
lfoot -12.8249 40.5641
ltoes -2.08231
2088
root 0.898184 17.4558 8.91202 4.16073 -3.51525 -8.85227
lowerback -0.998019 3.0216 4.64758
upperback -9.65345 4.52117 3.119
thorax -9.57889 2.00096 0.407579
lowerneck -9.75166 -10.4088 -4.70358
upperneck 20.0858 -13.7583 0.392772
head 8.18353 -6.87478 -0.510414
rclavicle -1.81143e-014 -1.41137e-014
rhumerus 40.4822 -9.70551 -69.0844
rradius 48.8433
rwrist 35.6996
rhand -30.0552 -43.2876
rfingers 7.12502
rthumb -3.37081 286.759
lclavicle -1.81143e-014 -1.41137e-014
lhumerus 5.65851 -19.9719 84.8149
lradius 62.2683
lwrist 42.4762
lhand -23.4777 -2.68468
lfingers 7.12502
lthumb 2.98181 27.2742
rfemur -4.05497 13.9841 24.589
rtibia 11.2016
rfoot -14.7167 -17.8158
rtoes -3.86569
lfemur 6.14613 -30.9929 -11.9921
ltibia -0.493598
lfoot -12.996 40.6766
ltoes -1.7544
2089
root 0.911038 17.4559 8.92035 4.20546 -3.57396 -8.81628
lowerback -1.10992 2.99404 4.48017
upperback -9.74231 4.4728 3.10947
thorax -9.62386 1.98942 0.497421
lowerneck -9.52121 -10.5393 -4.90998
upperneck 20.0086 -13.9643 0.622605
head 8.1558 -6.96962 -0.41467
rclavicle 1.635e-014 4.11484e-014
rhumerus 39.4346 -10.0784 -70.3157
rradius 49.6605
rwrist 33.7248
rhand -30.2444 -43.1717
rfingers 7.12502
rthumb -3.55346 286.878
lclavicle 1.635e-014 4.11484e-014
lhumerus 5.37343 -19.9779 84.8445
lradius 62.468
lwrist 42.3745
lhand -23.2863 -2.62447
lfingers 7.12502
lthumb 3.16662 27.3318
rfemur -4.02013 14.1313 24.5112
rtibia 11.0975
rfoot -14.678 -17.8897
rtoes -3.85609
lfemur 6.16182 -31.1001 -12.1329
ltibia -0.44674
lfoot -13.3591 40.7888
ltoes -1.08855
2090
root 0.922667 17.4553 8.92782 4.24166 -3.61437 -8.79653
lowerback -1.21227 2.96094 4.30629
upperback -9.80733 4.41758 3.11645
thorax -9.64949 1.97661 0.608606
lowerneck -9.38338 -10.6807 -5.05867
upperneck 19.9762 -14.1868 0.821643
head 8.15411 -7.06933 -0.346085
rclavicle -1.28962e-014 4.08502e-014
rhumerus 38.4328 -10.4468 -71.4934
rradius 50.379
rwrist 32.4958
rhand -30.3295 -43.2162
rfingers 7.12502
rthumb -3.63562 286.835
lclavicle -1.28962e-014 4.08502e-014
lhumerus 5.12475 -19.9961 84.8434
lradius 62.6882
lwrist 42.444
lhand -23.2143 -2.71069
lfingers 7.12502
lthumb 3.23617 27.2445
rfemur -3.9935 14.2437 24.449
rtibia 11.0097
rfoot -14.6514 -17.9358
rtoes -3.72904
lfemur 6.1543 -31.193 -12.2387
ltibia -0.383844
lfoot -13.7153 40.8915
ltoes -0.513944
2091
root 0.931851 17.4558 8.93548 4.24355 -3.66726 -8.83508
lowerback -1.27045 2.94789 4.16357
upperback -9.85951 4.39406 3.13126
thorax -9.68505 1.9771 0.706726
lowerneck -9.22097 -10.8411 -5.12872
upperneck 19.8601 -14.4335 0.959617
head 8.11041 -7.18231 -0.306143
rclavicle -9.79014e-015 -3.8763e-015
rhumerus 37.4504 -10.8812 -72.6936
rradius 50.9925
rwrist 31.7165
rhand -30.4658 -43.0191
rfingers 7.12502
rthumb -3.7673 287.034
lclavicle -9.79014e-015 -3.8763e-015
lhumerus 4.95857 -20.0647 84.8422
lradius 62.8327
lwrist 42.5992
lhand -23.2087 -2.78216
lfingers 7.12502
lthumb 3.24157 27.1729
rfemur -3.94123 14.3125 24.4642
rtibia 10.9443
rfoot -14.644 -17.9402
rtoes -3.72485
lfemur 6.22211 -31.2985 -12.2988
ltibia -0.370711
lfoot -13.9038 41.0364
ltoes -0.281868
2092
root 0.939875 17.4566 8.94342 4.22553 -3.71677 -8.90467
lowerback -1.2652 2.93077 4.04244
upperback -9.93077 4.3723 3.15222
thorax -9.77918 1.9758 0.795877
lowerneck -8.96738 -10.9736 -5.28416
upperneck 19.6474 -14.6596 1.2514
head 8.03738 -7.27968 -0.194591
rclavicle 4.05024e-014 8.34896e-015
rhumerus 36.3518 -11.2816 -73.549
rradius 51.7177
rwrist 30.8356
rhand -30.671 -42.6374
rfingers 7.12502
rthumb -3.96547 287.42
lclavicle 4.05024e-014 8.34896e-015
lhumerus 4.78703 -20.0933 84.8659
lradius 62.888
lwrist 42.6379
lhand -23.1519 -2.77444
lfingers 7.12502
lthumb 3.29639 27.1798
rfemur -3.8438 14.385 24.534
rtibia 10.8587
rfoot -14.615 -17.9593
rtoes -3.73776
lfemur 6.34584 -31.3816 -12.3347
ltibia -0.402532
lfoot -13.9325 41.1656
ltoes -0.211395
2093
root 0.947524 17.4567 8.95215 4.21931 -3.77495 -8.99175
lowerback -0.905107 2.96755 4.09815
upperback -10.2654 4.46229 3.04586
thorax -10.3617 1.99636 0.622232
lowerneck -8.53233 -11.1293 -5.44585
upperneck 19.6152 -14.9553 1.6173
head 8.00302 -7.40668 -0.0618932
rclavicle -1.98785e-016 2.28602e-014
rhumerus 34.5952 -11.6319 -73.8677
rradius 52.6921
rwrist 29.4132
rhand -30.8413 -42.2233
rfingers 7.12502
rthumb -4.12987 287.837
lclavicle -1.98785e-016 2.28602e-014
lhumerus 4.16066 -20.3734 84.9572
lradius 62.9863
lwrist 42.5775
lhand -23.1476 -2.74995
lfingers 7.12502
lthumb 3.30061 27.2042
rfemur -3.73919 14.4443 24.6283
rtibia 10.7428
rfoot -14.5254 -17.9685
rtoes -3.82915
lfemur 6.48738 -31.4556 -12.3476
ltibia -0.466158
lfoot -13.9406 41.2846
ltoes -0.129082
2094
root 0.954431 17.4559 8.96206 4.22644 -3.84804 -9.04216
lowerback -1.40311 2.85994 3.79104
upperback -10.0039 4.26839 3.2507
thorax -9.80634 1.95102 1.05226
lowerneck -8.6729 -11.1905 -5.54344
upperneck 19.2542 -15.0323 1.78947
head 7.93223 -7.43422 0.000485792
rclavicle 2.15681e-014 3.58806e-014
rhumerus 33.9813 -11.5006 -74.2292
rradius 53.5839
rwrist 27.991
rhand -30.8592 -42.001
rfingers 7.12502
rthumb -4.14715 288.06
lclavicle 2.15681e-014 3.58806e-014
lhumerus 4.49956 -19.9092 84.8709
lradius 62.9688
lwrist 42.4557
lhand -23.2189 -2.73118
lfingers 7.12502
lthumb 3.2317 27.2241
rfemur -3.65197 14.5102 24.6742
rtibia 10.627
rfoot -14.4735 -17.965
rtoes -3.86078
lfemur 6.62334 -31.5612 -12.4106
ltibia -0.516987
lfoot -13.9545 41.4481
ltoes -0.0995323
2095
root 0.96107 17.4546 8.97205 4.25758 -3.91165 -9.10259
lowerback -1.56706 2.82908 3.70525
upperback -10.0312 4.21578 3.28382
thorax -9.74839 1.93542 1.14617
lowerneck -8.54552 -11.2937 -5.68398
upperneck 19.074 -15.1914 1.97753
head 7.88309 -7.50668 0.0751509
rclavicle -3.598e-014 -1.71949e-014
rhumerus 32.8812 -11.6208 -74.7102
rradius 54.4002
rwrist 27.5873
rhand -30.7925 -42.1538
rfingers 7.12502
rthumb -4.08279 287.906
lclavicle -3.598e-014 -1.71949e-014
lhumerus 4.39528 -19.7636 84.881
lradius 62.9598
lwrist 42.4299
lhand -23.2527 -2.68794
lfingers 7.12502
lthumb 3.1991 27.2678
rfemur -3.60131 14.566 24.7203
rtibia 10.5307
rfoot -14.4386 -17.9668
rtoes -3.90119
lfemur 6.70237 -31.6425 -12.4295
ltibia -0.54882
lfoot -14.0596 41.5798
ltoes 0.170571
